<?xml version="1.0" encoding="iso-8859-1"?>
<!-- Generator: Adobe Illustrator 19.0.0, SVG Export Plug-In . SVG Version: 6.00 Build 0)  -->
<svg xmlns="http://www.w3.org/2000/svg" xmlns:xlink="http://www.w3.org/1999/xlink" version="1.1" id="Layer_1" x="0px" y="0px" viewBox="0 0 512 512" style="enable-background:new 0 0 512 512;" xml:space="preserve">
<circle style="fill:#00C3FF;" cx="256" cy="256" r="247.409"/>
<path style="fill:#00AAF0;" d="M290.362,443.848c-122.723,0-222.21-99.487-222.21-222.21c0-97.483,62.8-180.245,150.128-210.189  C99.543,29.612,8.591,132.184,8.591,256c0,136.64,110.77,247.409,247.409,247.409c123.817,0,226.388-90.953,244.552-209.69  C470.606,381.048,387.845,443.848,290.362,443.848z"/>
<g>
	<path style="fill:#7DD7FF;" d="M301.826,97.159c-0.796,0-1.61-0.108-2.416-0.326c-14.068-3.83-28.672-5.772-43.41-5.772   c-5.065,0-9.163-4.103-9.163-9.163c0-5.06,4.098-9.163,9.163-9.163c16.358,0,32.581,2.157,48.224,6.417   c4.886,1.329,7.767,6.367,6.434,11.248C309.548,94.474,305.852,97.159,301.826,97.159z"/>
	<path style="fill:#7DD7FF;" d="M429.145,246.846c-4.635,0-8.609-3.499-9.1-8.21c-5.262-50.229-34.139-96.184-77.252-122.921   c-4.295-2.667-5.619-8.313-2.953-12.613c2.667-4.291,8.313-5.633,12.618-2.957c47.893,29.701,79.973,80.761,85.808,136.586   c0.528,5.034-3.124,9.539-8.152,10.067C429.781,246.828,429.459,246.846,429.145,246.846z"/>
</g>
<path d="M274.327,292.081c4.745,0,8.591-3.846,8.591-8.591v-18.899h18.899c4.745,0,8.591-3.846,8.591-8.591  c0-4.744-3.845-8.591-8.591-8.591h-18.899V228.51c0-4.744-3.845-8.591-8.591-8.591s-8.591,3.846-8.591,8.591v18.899h-18.899  c-4.744,0-8.591,3.846-8.591,8.591c0,4.744,3.846,8.591,8.591,8.591h18.899v18.899C265.736,288.234,269.581,292.081,274.327,292.081  z"/>
<path d="M357.369,228.51v18.899H338.47c-4.745,0-8.591,3.846-8.591,8.591c0,4.744,3.845,8.591,8.591,8.591h18.899v18.899  c0,4.744,3.845,8.591,8.591,8.591c4.745,0,8.591-3.846,8.591-8.591v-18.899h18.899c4.745,0,8.591-3.846,8.591-8.591  c0-4.744-3.845-8.591-8.591-8.591H374.55V228.51c0-4.744-3.845-8.591-8.591-8.591C361.214,219.919,357.369,223.766,357.369,228.51z"/>
<path d="M437.019,74.981C388.668,26.629,324.38,0,256,0S123.332,26.629,74.98,74.981C26.629,123.332,0,187.62,0,256  s26.629,132.668,74.98,181.019C123.332,485.371,187.62,512,256,512s132.668-26.629,181.019-74.981  C485.371,388.668,512,324.38,512,256S485.371,123.332,437.019,74.981z M256,494.819C124.315,494.819,17.181,387.685,17.181,256  S124.315,17.181,256,17.181c131.686,0,238.819,107.134,238.819,238.819S387.686,494.819,256,494.819z"/>
<path d="M53.834,256c0-111.475,90.692-202.166,202.166-202.166c35.069,0,69.614,9.117,99.901,26.366  c4.122,2.347,9.368,0.909,11.716-3.213s0.908-9.368-3.214-11.716C331.531,46.548,294.046,36.653,256,36.653  C135.052,36.653,36.653,135.051,36.653,256c0,50.915,17.839,100.527,50.231,139.698c1.699,2.055,4.152,3.117,6.625,3.117  c1.928,0,3.867-0.646,5.469-1.97c3.656-3.024,4.169-8.438,1.145-12.094C70.275,348.651,53.834,302.926,53.834,256z"/>
<path d="M446.706,147.555c-2.35-4.122-7.598-5.559-11.716-3.211c-4.123,2.349-5.56,7.595-3.212,11.716  c17.263,30.295,26.388,64.853,26.388,99.94c0,111.475-90.692,202.166-202.166,202.166c-47.079,0-92.916-16.534-129.071-46.556  c-3.65-3.031-9.066-2.529-12.098,1.121c-3.031,3.65-2.529,9.066,1.121,12.098c39.233,32.577,88.969,50.518,140.047,50.518  c120.949,0,219.347-98.398,219.347-219.347C475.347,217.937,465.444,180.437,446.706,147.555z"/>
<path d="M387.867,102.756c7.632,6.574,14.831,13.775,21.4,21.403c1.699,1.974,4.099,2.986,6.514,2.986  c1.985,0,3.98-0.684,5.602-2.081c3.595-3.096,4.001-8.52,0.905-12.115c-7.123-8.272-14.93-16.082-23.207-23.211  c-3.591-3.094-9.016-2.694-12.115,0.903C383.868,94.235,384.271,99.66,387.867,102.756z"/>
<path d="M191.857,191.284c11.392,0,22.367,3.458,31.736,9.998c3.891,2.717,9.245,1.765,11.962-2.126  c2.716-3.89,1.765-9.246-2.126-11.962c-12.269-8.564-26.643-13.092-41.572-13.092c-40.106,0-72.734,32.628-72.734,72.734v18.327  c0,40.106,32.628,72.734,72.734,72.734c14.929,0,29.304-4.528,41.572-13.093c3.89-2.717,4.842-8.072,2.125-11.962  c-2.717-3.89-8.073-4.842-11.962-2.125c-9.368,6.54-20.341,9.998-31.735,9.998c-30.632,0-55.553-24.921-55.553-55.553v-18.327  C136.304,216.205,161.225,191.284,191.857,191.284z"/>
<g>
</g>
<g>
</g>
<g>
</g>
<g>
</g>
<g>
</g>
<g>
</g>
<g>
</g>
<g>
</g>
<g>
</g>
<g>
</g>
<g>
</g>
<g>
</g>
<g>
</g>
<g>
</g>
<g>
</g>
</svg>
